<svg width="100" height="100" viewBox="0 0 100 100" fill="none" xmlns="http://www.w3.org/2000/svg">
<g clip-path="url(#clip0)">
<path d="M58.4183 69.5329C58.421 72.2084 57.7274 74.8386 56.4057 77.1648C55.0839 79.491 53.1796 81.4332 50.8798 82.8004C48.5801 84.1677 45.9641 84.9129 43.2891 84.9628C40.6141 85.0126 37.9721 84.3655 35.623 83.085C33.2738 81.8045 31.2984 79.9345 29.8908 77.6592C28.4833 75.3839 27.6921 72.7816 27.5951 70.1078C27.498 67.4341 28.0985 64.7812 29.3374 62.4099C30.5763 60.0385 32.411 58.0303 34.6612 56.5829V22.8821C34.6612 20.6721 35.5391 18.5527 37.1018 16.99C38.6645 15.4273 40.7839 14.5495 42.9939 14.5495C45.2038 14.5495 47.3233 15.4273 48.886 16.99C50.4487 18.5527 51.3266 20.6721 51.3266 22.8821V56.5676C53.4999 57.962 55.2881 59.8797 56.5272 62.1451C57.7663 64.4105 58.4165 66.9508 58.4183 69.5329Z" stroke="white" stroke-width="2" stroke-linecap="round" stroke-linejoin="round"/>
<path d="M46.1465 30.5442H39.6561V64.1834H46.1465V30.5442Z" fill="white" stroke="white" stroke-width="2" stroke-linecap="round" stroke-linejoin="round"/>
<path d="M43.0015 79.338C48.4167 79.338 52.8065 74.9481 52.8065 69.533C52.8065 64.1178 48.4167 59.728 43.0015 59.728C37.5864 59.728 33.1965 64.1178 33.1965 69.533C33.1965 74.9481 37.5864 79.338 43.0015 79.338Z" fill="white" stroke="white" stroke-width="2" stroke-linecap="round" stroke-linejoin="round"/>
<path d="M66.06 35.22L61.095 26.5L56.13 35.22C55.6871 36.0721 55.4712 37.0238 55.5031 37.9836C55.5349 38.9434 55.8135 39.8787 56.3119 40.6995C56.8104 41.5203 57.5118 42.1989 58.3487 42.6698C59.1856 43.1407 60.1297 43.3881 61.09 43.3881C62.0503 43.3881 62.9944 43.1407 63.8313 42.6698C64.6682 42.1989 65.3696 41.5203 65.8681 40.6995C66.3665 39.8787 66.6451 38.9434 66.6769 37.9836C66.7088 37.0238 66.4929 36.0721 66.05 35.22H66.06Z" stroke="white" stroke-width="2" stroke-linecap="round" stroke-linejoin="round"/>
</g>
<defs>
<clipPath id="clip0">
<rect width="74" height="74" fill="white" transform="translate(13 13)"/>
</clipPath>
</defs>
</svg>
