<svg width="100" height="100" viewBox="0 0 100 100" fill="none" xmlns="http://www.w3.org/2000/svg">
<path d="M45.5754 66.172L38.2371 53.2066L30.8833 66.1103C30.2312 67.3699 29.9144 68.7762 29.9632 70.1937C30.0121 71.6112 30.4249 72.9923 31.1621 74.2041C31.8993 75.4158 32.936 76.4174 34.1724 77.1124C35.4088 77.8075 36.8033 78.1726 38.2217 78.1726C39.64 78.1726 41.0345 77.8075 42.2709 77.1124C43.5073 76.4174 44.544 75.4158 45.2812 74.2041C46.0184 72.9923 46.4312 71.6112 46.4801 70.1937C46.5289 68.7762 46.2121 67.3699 45.56 66.1103L45.5754 66.172Z" stroke="white" stroke-width="4" stroke-linecap="round" stroke-linejoin="round"/>
<path d="M69.6254 61.9479L62.2716 49.0442L54.9179 61.9479C54.2659 63.2075 53.9489 64.6138 53.9978 66.0313C54.0466 67.4488 54.4595 68.8299 55.1967 70.0417C55.9339 71.2534 56.9706 72.255 58.207 72.95C59.4434 73.6451 60.8379 74.0102 62.2563 74.0102C63.6746 74.0102 65.0691 73.6451 66.3055 72.95C67.5419 72.255 68.5786 71.2534 69.3158 70.0417C70.053 68.8299 70.4659 67.4488 70.5147 66.0313C70.5635 64.6138 70.2466 63.2075 69.5945 61.9479H69.6254Z" stroke="white" stroke-width="4" stroke-linecap="round" stroke-linejoin="round"/>
<path d="M57.5541 35.1537L50.2004 22.25L42.8467 35.1537C42.1946 36.4133 41.8778 37.8196 41.9266 39.2371C41.9754 40.6546 42.3883 42.0357 43.1255 43.2475C43.8627 44.4592 44.8994 45.4608 46.1358 46.1559C47.3722 46.8509 48.7666 47.216 50.185 47.216C51.6034 47.216 52.9978 46.8509 54.2342 46.1559C55.4706 45.4608 56.5074 44.4592 57.2445 43.2475C57.9817 42.0357 58.3946 40.6546 58.4434 39.2371C58.4922 37.8196 58.1754 36.4133 57.5234 35.1537H57.5541Z" stroke="white" stroke-width="4" stroke-linecap="round" stroke-linejoin="round"/>
</svg>
