<svg width="100" height="100" viewBox="0 0 100 100" fill="none" xmlns="http://www.w3.org/2000/svg">
<rect opacity="0.0229128" x="0.5" y="0.5" width="99" height="99" stroke="#2B2B2B"/>
<path fill-rule="evenodd" clip-rule="evenodd" d="M72.3927 26.3187C71.2204 26.3187 70.0495 26.446 68.9047 26.6976C65.2451 18.0939 56.7069 12.3547 47.4676 12.3547C35.9375 12.3547 26.3505 20.6 24.4422 32.052C24.4145 32.0506 24.3884 32.0506 24.3607 32.0506C16.8218 32.0506 10.6895 38.2784 10.6895 45.9326C10.6895 53.5869 16.8218 59.8132 24.3607 59.8132H72.3927C81.4851 59.8132 88.8829 52.2994 88.8829 43.0652C88.8829 33.8325 81.4851 26.3187 72.3927 26.3187V26.3187ZM85.5665 43.0652C85.5665 50.4503 79.6567 56.4572 72.3927 56.4572H24.3607C18.6502 56.4572 14.0058 51.7362 14.0058 45.9326C14.0058 40.1276 18.6502 35.4051 24.3607 35.4051C24.7418 35.4051 25.1578 35.4359 25.6713 35.5002L27.3571 35.7124L27.5258 34.0036C28.5673 23.5742 37.1389 15.7093 47.4676 15.7093C55.9156 15.7093 63.4996 21.1559 66.3375 29.2636L66.8742 30.7939L68.4015 30.3009C69.6989 29.8854 71.0415 29.6747 72.3927 29.6747C79.6567 29.6747 85.5665 35.6816 85.5665 43.0652V43.0652Z" fill="white"/>
<path fill-rule="evenodd" clip-rule="evenodd" d="M56.1687 69.4117C56.1687 71.157 54.7607 72.5732 53.0254 72.5732C51.2902 72.5732 49.8822 71.157 49.8822 69.4117C49.8822 67.6664 51.2902 66.2502 53.0254 66.2502C54.7607 66.2502 56.1687 67.6664 56.1687 69.4117" fill="white"/>
<path fill-rule="evenodd" clip-rule="evenodd" d="M62.4538 84.5841C62.4538 86.3309 61.0473 87.7456 59.312 87.7456C57.5753 87.7456 56.1687 86.3309 56.1687 84.5841C56.1687 82.8388 57.5753 81.4241 59.312 81.4241C61.0473 81.4241 62.4538 82.8388 62.4538 84.5841" fill="white"/>
<path fill-rule="evenodd" clip-rule="evenodd" d="M77.9011 69.4117C77.9011 71.157 76.4946 72.5732 74.7578 72.5732C73.0226 72.5732 71.616 71.157 71.616 69.4117C71.616 67.6664 73.0226 66.2502 74.7578 66.2502C76.4946 66.2502 77.9011 67.6664 77.9011 69.4117" fill="white"/>
<path fill-rule="evenodd" clip-rule="evenodd" d="M82.9294 84.5841C82.9294 86.3309 81.5229 87.7456 79.7862 87.7456C78.0509 87.7456 76.6443 86.3309 76.6443 84.5841C76.6443 82.8388 78.0509 81.4241 79.7862 81.4241C81.5229 81.4241 82.9294 82.8388 82.9294 84.5841" fill="white"/>
<path fill-rule="evenodd" clip-rule="evenodd" d="M36.4524 70.7825C36.4524 72.5278 35.0444 73.944 33.3091 73.944C31.5738 73.944 30.1658 72.5278 30.1658 70.7825C30.1658 69.0372 31.5738 67.6211 33.3091 67.6211C35.0444 67.6211 36.4524 69.0372 36.4524 70.7825" fill="white"/>
<path fill-rule="evenodd" clip-rule="evenodd" d="M42.7375 85.9549C42.7375 87.7002 41.3309 89.1164 39.5942 89.1164C37.8589 89.1164 36.4524 87.7002 36.4524 85.9549C36.4524 84.2096 37.8589 82.7949 39.5942 82.7949C41.3309 82.7949 42.7375 84.2096 42.7375 85.9549" fill="white"/>
</svg>
