<svg width="100" height="100" viewBox="0 0 100 100" fill="none" xmlns="http://www.w3.org/2000/svg">
<path d="M51.936 23H49.0511V37.4444H51.936V23Z" fill="white"/>
<path d="M78.0255 35.0137L75.9856 32.971L65.3689 43.6024L67.4088 45.6451L78.0255 35.0137Z" fill="white"/>
<path d="M35.6108 43.6102L24.9941 32.9788L22.9542 35.0216L33.5709 45.653L35.6108 43.6102Z" fill="white"/>
<path d="M40.8753 65.2558L42.9149 67.2982L49.0511 61.1535V75H51.936V61.1535L58.0707 67.2982L60.1103 65.2558L50.4935 55.6242L40.8753 65.2558Z" fill="white"/>
<path d="M69.2554 60.5541C69.2554 60.5512 69.2554 60.5483 69.2554 60.5454C69.2554 50.1743 60.8604 41.7691 50.5036 41.7691C40.1468 41.7691 31.7518 50.1743 31.7518 60.5454C31.7518 60.5483 31.7518 60.5512 31.7518 60.5541H13V63.443H38.964V60.5541H34.6367C34.6367 60.5512 34.6367 60.5483 34.6367 60.5454C34.6367 51.7863 41.7552 44.658 50.5036 44.658C59.252 44.658 66.3705 51.7863 66.3705 60.5454C66.3705 60.5483 66.3705 60.5512 66.3705 60.5541H62.0432V63.443H88V60.5541H69.2554Z" fill="white"/>
</svg>
