<svg width="100" height="100" viewBox="0 0 100 100" fill="none" xmlns="http://www.w3.org/2000/svg">
<path d="M51.936 23H49.0511V37.3322H51.936V23Z" fill="white"/>
<path d="M78.0255 34.9205L75.9856 32.8936L65.3689 43.4424L67.4088 45.4693L78.0255 34.9205Z" fill="white"/>
<path d="M35.6108 43.4501L24.9941 32.9013L22.9542 34.9282L33.5709 45.477L35.6108 43.4501Z" fill="white"/>
<path d="M51.936 72.5136V57.3974H49.0511V72.5136L42.9149 66.4167L40.8753 68.4433L50.4935 78L60.1103 68.4433L58.0707 66.4167L51.936 72.5136Z" fill="white"/>
<path d="M69.2554 60.2624C69.2554 60.2596 69.2554 60.2567 69.2554 60.2538C69.2554 49.9633 60.8604 41.6234 50.5036 41.6234C40.1468 41.6234 31.7518 49.9633 31.7518 60.2538C31.7518 60.2567 31.7518 60.2596 31.7518 60.2624H13V63.1289H44.7338V60.2624H34.6367C34.6367 60.2596 34.6367 60.2567 34.6367 60.2538C34.6367 51.5628 41.7552 44.4898 50.5036 44.4898C59.252 44.4898 66.3705 51.5628 66.3705 60.2538C66.3705 60.2567 66.3705 60.2596 66.3705 60.2624H56.2734V63.1289H88V60.2624H69.2554Z" fill="white"/>
</svg>
