<svg width="100" height="100" viewBox="0 0 100 100" fill="none" xmlns="http://www.w3.org/2000/svg">
<g clip-path="url(#clip0)">
<path d="M65.4183 69.5329C65.421 72.2084 64.7274 74.8386 63.4057 77.1648C62.0839 79.491 60.1796 81.4332 57.8798 82.8004C55.5801 84.1677 52.9641 84.9129 50.2891 84.9628C47.6141 85.0126 44.9721 84.3655 42.623 83.085C40.2738 81.8045 38.2984 79.9345 36.8908 77.6592C35.4833 75.3839 34.6921 72.7816 34.5951 70.1078C34.498 67.4341 35.0985 64.7812 36.3374 62.4099C37.5763 60.0385 39.411 58.0303 41.6612 56.5829V22.8821C41.6612 20.6721 42.5391 18.5527 44.1018 16.99C45.6645 15.4273 47.7839 14.5495 49.9939 14.5495C52.2038 14.5495 54.3233 15.4273 55.886 16.99C57.4487 18.5527 58.3266 20.6721 58.3266 22.8821V56.5676C60.4999 57.962 62.2881 59.8797 63.5272 62.1451C64.7663 64.4105 65.4165 66.9508 65.4183 69.5329Z" stroke="white" stroke-width="4" stroke-linecap="round" stroke-linejoin="round"/>
<path d="M51.6561 30.5442H47.6561V64.1834H51.6561V30.5442Z" fill="white" stroke="white" stroke-width="2" stroke-linecap="round" stroke-linejoin="round"/>
<path d="M49.5 77C53.6421 77 57 73.6421 57 69.5C57 65.3579 53.6421 62 49.5 62C45.3579 62 42 65.3579 42 69.5C42 73.6421 45.3579 77 49.5 77Z" fill="white" stroke="white" stroke-width="2" stroke-linecap="round" stroke-linejoin="round"/>
</g>
<defs>
<clipPath id="clip0">
<rect width="74" height="74" fill="white" transform="translate(13 13)"/>
</clipPath>
</defs>
</svg>
