<svg width="100" height="100" viewBox="0 0 100 100" fill="none" xmlns="http://www.w3.org/2000/svg">
<g clip-path="url(#clip0)">
<mask id="path-1-inside-1" fill="white">
<path d="M47.9957 74.9409C25.8469 74.9409 9.90337 52.0487 9.23525 51.074C8.90186 50.5901 8.92472 49.9435 9.28768 49.4824C10.0418 48.5252 27.9816 26.0591 49.5 26.0591C73.6344 26.0591 89.1222 48.6019 89.7701 49.5603C90.0793 50.0201 90.078 50.6224 89.7607 51.0781C89.1222 52.003 73.8414 73.6867 49.5672 74.9006C49.0416 74.9261 48.5173 74.9409 47.9957 74.9409ZM12.0475 50.3669C15.1744 54.5316 30.267 73.1758 49.4355 72.2173C69.9187 71.1957 84.0675 54.1323 86.9928 50.3051C84.0689 46.3905 69.7708 28.7491 49.5013 28.7491C31.45 28.7491 15.4137 46.4093 12.0475 50.3669Z"/>
</mask>
<path d="M9.23525 51.074L12.5345 48.8124L12.5293 48.8048L9.23525 51.074ZM9.28768 49.4824L6.14578 47.0068L6.14464 47.0083L9.28768 49.4824ZM89.7701 49.5603L93.0893 47.3281L93.0839 47.3201L89.7701 49.5603ZM89.7607 51.0781L86.4779 48.7927L86.4734 48.7991L86.469 48.8055L89.7607 51.0781ZM49.5672 74.9006L49.7614 78.8959L49.767 78.8956L49.5672 74.9006ZM12.0475 50.3669L9.00061 47.7754L6.92876 50.2113L8.84879 52.7686L12.0475 50.3669ZM49.4355 72.2173L49.2362 68.2223L49.2357 68.2223L49.4355 72.2173ZM86.9928 50.3051L90.1708 52.7341L92.0061 50.3329L90.1975 47.9114L86.9928 50.3051ZM47.9957 70.9409C38.2968 70.9409 29.6765 65.9031 23.1592 60.3324C16.6942 54.8063 12.7692 49.1547 12.5345 48.8124L5.93603 53.3357C6.36946 53.968 10.7503 60.2499 17.9612 66.4136C25.1199 72.5326 35.5458 78.9409 47.9957 78.9409V70.9409ZM12.5293 48.8048C13.197 49.7741 13.1445 51.0497 12.4307 51.9565L6.14464 47.0083C4.70492 48.8372 4.60672 51.4061 5.94122 53.3433L12.5293 48.8048ZM12.4296 51.958C12.7095 51.6027 17.1615 46.0155 24.0852 40.5519C31.0891 35.0249 40.0746 30.0591 49.5 30.0591V22.0591C37.407 22.0591 26.6634 28.3264 19.1294 34.2718C11.515 40.2805 6.62 46.4049 6.14578 47.0068L12.4296 51.958ZM49.5 30.0591C60.2892 30.0591 69.3178 35.1029 75.8955 40.5346C82.457 45.953 86.2441 51.4867 86.4563 51.8006L93.0839 47.3201C92.6481 46.6755 88.3674 40.4586 80.9894 34.366C73.6276 28.2868 62.8452 22.0591 49.5 22.0591V30.0591ZM86.4509 51.7926C85.85 50.8991 85.8414 49.707 86.4779 48.7927L93.0435 53.3635C94.3145 51.5377 94.3086 49.1411 93.0893 47.3281L86.4509 51.7926ZM86.469 48.8055C86.2708 49.0926 82.534 54.4206 75.9904 59.7883C69.4346 65.1662 60.3434 70.3567 49.3674 70.9056L49.767 78.8956C63.0652 78.2306 73.7515 71.9723 81.0642 65.9735C88.3892 59.9647 92.6121 53.9884 93.0524 53.3507L86.469 48.8055ZM49.3731 70.9053C48.9009 70.9282 48.4423 70.9409 47.9957 70.9409V78.9409C48.5923 78.9409 49.1822 78.924 49.7614 78.8959L49.3731 70.9053ZM8.84879 52.7686C10.5201 54.9946 15.323 61.0103 22.2823 66.3802C29.1987 71.7169 38.6953 76.7594 49.6352 76.2123L49.2357 68.2223C41.0071 68.6338 33.3732 64.8334 27.1695 60.0465C21.0086 55.2927 16.7019 49.904 15.2463 47.9653L8.84879 52.7686ZM49.6347 76.2124C60.9465 75.6482 70.3606 70.6675 77.2061 65.5075C84.0613 60.3401 88.5809 54.8142 90.1708 52.7341L83.8147 47.8761C82.4794 49.6232 78.462 54.5426 72.3906 59.1191C66.3096 63.703 58.4077 67.7648 49.2362 68.2223L49.6347 76.2124ZM90.1975 47.9114C88.6124 45.7892 84.0496 40.0798 77.1656 34.8696C70.2939 29.6687 60.8181 24.7491 49.5013 24.7491V32.7491C58.4541 32.7491 66.262 36.6502 72.3377 41.2486C78.4011 45.8377 82.4493 50.9064 83.788 52.6988L90.1975 47.9114ZM49.5013 24.7491C39.2282 24.7491 29.8643 29.7358 22.9 34.8498C15.8659 40.015 10.7874 45.6746 9.00061 47.7754L15.0945 52.9585C16.6739 51.1016 21.2966 45.9524 27.635 41.298C34.0432 36.5925 41.7231 32.7491 49.5013 32.7491V24.7491Z" fill="white" mask="url(#path-1-inside-1)"/>
<mask id="path-3-inside-2" fill="white">
<path d="M49.3292 62.427C42.6578 62.427 37.2305 56.9987 37.2305 50.3282C37.2305 43.6587 42.6587 38.2304 49.3292 38.2304C55.9998 38.2304 61.428 43.6587 61.428 50.3282C61.428 56.9987 56.0017 62.427 49.3292 62.427ZM49.3292 40.1664C43.7266 40.1664 39.1684 44.7246 39.1684 50.3273C39.1684 55.929 43.7266 60.4871 49.3292 60.4871C54.9319 60.4871 59.4901 55.929 59.4901 50.3273C59.4901 44.7246 54.9329 40.1664 49.3292 40.1664Z"/>
</mask>
<path d="M49.3292 58.427C44.8671 58.427 41.2305 54.7898 41.2305 50.3282H33.2305C33.2305 59.2077 40.4484 66.427 49.3292 66.427V58.427ZM41.2305 50.3282C41.2305 45.868 44.8677 42.2304 49.3292 42.2304V34.2304C40.4498 34.2304 33.2305 41.4493 33.2305 50.3282H41.2305ZM49.3292 42.2304C53.7908 42.2304 57.428 45.868 57.428 50.3282H65.428C65.428 41.4493 58.2087 34.2304 49.3292 34.2304V42.2304ZM57.428 50.3282C57.428 54.79 53.7921 58.427 49.3292 58.427V66.427C58.2113 66.427 65.428 59.2075 65.428 50.3282H57.428ZM49.3292 36.1664C41.5174 36.1664 35.1684 42.5154 35.1684 50.3273H43.1684C43.1684 46.9337 45.9357 44.1664 49.3292 44.1664V36.1664ZM35.1684 50.3273C35.1684 58.1384 41.5177 64.4871 49.3292 64.4871V56.4871C45.9355 56.4871 43.1684 53.7196 43.1684 50.3273H35.1684ZM49.3292 64.4871C57.1408 64.4871 63.4901 58.1384 63.4901 50.3273H55.4901C55.4901 53.7196 52.723 56.4871 49.3292 56.4871V64.4871ZM63.4901 50.3273C63.4901 42.5157 57.1423 36.1664 49.3292 36.1664V44.1664C52.7235 44.1664 55.4901 46.9335 55.4901 50.3273H63.4901Z" fill="white" mask="url(#path-3-inside-2)"/>
</g>
<defs>
<clipPath id="clip0">
<rect width="81" height="81" fill="white" transform="translate(9 10)"/>
</clipPath>
</defs>
</svg>
