<svg width="100" height="100" viewBox="0 0 100 100" fill="none" xmlns="http://www.w3.org/2000/svg">
<path d="M50.5 53.5714H15.0833C13.1301 53.5714 11.5417 51.9696 11.5417 50C11.5417 48.0303 13.1301 46.4285 15.0833 46.4285H21.1839H22.1667V42.8571H15.0833C11.1716 42.8571 8 46.0553 8 50C8 53.9446 11.1716 57.1428 15.0833 57.1428H50.5C54.4047 57.1428 57.5833 60.3464 57.5833 64.2857C57.5833 68.225 54.4047 71.4285 50.5 71.4285V75C56.3685 75 61.125 70.2035 61.125 64.2857C61.125 58.3696 56.3685 53.5714 50.5 53.5714Z" fill="white"/>
<path d="M54.0417 25V28.5714C57.9464 28.5714 61.125 31.775 61.125 35.7143C61.125 39.6536 57.9464 42.8571 54.0417 42.8571H25.7296V46.4286H54.0417C59.9102 46.4286 64.6667 41.6304 64.6667 35.7143C64.6667 29.7964 59.9102 25 54.0417 25Z" fill="white"/>
<path d="M64.6667 46.4286V50H74.4063V49.909C78.8741 49.4554 82.375 45.6982 82.375 41.0715C82.375 36.1393 78.4119 32.1429 73.5208 32.1429V35.7143C76.4498 35.7143 78.8333 38.1179 78.8333 41.0715C78.8333 44.025 76.4498 46.4286 73.5208 46.4286C73.4447 46.4286 73.3739 46.409 73.2977 46.4054H64.6879C64.6932 46.4143 64.7039 46.4215 64.7092 46.4286H64.6667Z" fill="white"/>
<path d="M84.1458 53.5714H64.6667V57.1428H77.1015C77.0944 57.15 77.0873 57.1571 77.082 57.1661H83.9209C83.9989 57.1625 84.0697 57.1428 84.1458 57.1428C87.0748 57.1428 89.4583 59.5464 89.4583 62.5C89.4583 65.4536 87.0748 67.8571 84.1458 67.8571V71.4286C89.0369 71.4286 93 67.4321 93 62.5C93 57.5678 89.0369 53.5714 84.1458 53.5714Z" fill="white"/>
</svg>
